<mxfile host="app.diagrams.net" modified="2024-05-16T16:19:02.057Z" agent="Mozilla/5.0 (Windows NT 10.0; Win64; x64) AppleWebKit/537.36 (KHTML, like Gecko) Chrome/124.0.0.0 Safari/537.36" etag="ldo1WknbdQoGLKCkHQB6" version="24.4.3" type="github">
  <diagram name="第 1 页" id="z4Q94nxHHII8CcPsO6VD">
    <mxGraphModel dx="910" dy="490" grid="0" gridSize="10" guides="1" tooltips="1" connect="1" arrows="1" fold="1" page="0" pageScale="1" pageWidth="827" pageHeight="1169" math="0" shadow="0">
      <root>
        <mxCell id="0" />
        <mxCell id="1" parent="0" />
        <mxCell id="LrOv5_oU3gxugozuznGC-1" value="开始" style="strokeWidth=2;html=1;shape=mxgraph.flowchart.terminator;whiteSpace=wrap;" parent="1" vertex="1">
          <mxGeometry x="200" y="40" width="100" height="60" as="geometry" />
        </mxCell>
        <mxCell id="LrOv5_oU3gxugozuznGC-2" value="" style="strokeWidth=2;html=1;shape=mxgraph.flowchart.terminator;whiteSpace=wrap;" parent="1" vertex="1">
          <mxGeometry x="200" y="430" width="100" height="60" as="geometry" />
        </mxCell>
        <mxCell id="LrOv5_oU3gxugozuznGC-3" value="手机号登录" style="strokeWidth=2;html=1;shape=mxgraph.flowchart.decision;whiteSpace=wrap;" parent="1" vertex="1">
          <mxGeometry x="200" y="130" width="100" height="50" as="geometry" />
        </mxCell>
        <mxCell id="7rDf7-Akc83dyVxrhOKC-10" style="edgeStyle=orthogonalEdgeStyle;rounded=0;orthogonalLoop=1;jettySize=auto;html=1;exitX=1;exitY=0.5;exitDx=0;exitDy=0;exitPerimeter=0;entryX=0;entryY=0.5;entryDx=0;entryDy=0;" edge="1" parent="1" source="LrOv5_oU3gxugozuznGC-4" target="LrOv5_oU3gxugozuznGC-5">
          <mxGeometry relative="1" as="geometry" />
        </mxCell>
        <mxCell id="7rDf7-Akc83dyVxrhOKC-11" style="edgeStyle=orthogonalEdgeStyle;rounded=0;orthogonalLoop=1;jettySize=auto;html=1;exitX=1;exitY=0.5;exitDx=0;exitDy=0;exitPerimeter=0;entryX=0;entryY=0.5;entryDx=0;entryDy=0;" edge="1" parent="1" source="LrOv5_oU3gxugozuznGC-4" target="7rDf7-Akc83dyVxrhOKC-4">
          <mxGeometry relative="1" as="geometry" />
        </mxCell>
        <mxCell id="LrOv5_oU3gxugozuznGC-4" value="前端主页" style="verticalLabelPosition=bottom;verticalAlign=top;html=1;shape=mxgraph.flowchart.on-page_reference;" parent="1" vertex="1">
          <mxGeometry x="224" y="214" width="52" height="48" as="geometry" />
        </mxCell>
        <mxCell id="7rDf7-Akc83dyVxrhOKC-5" style="edgeStyle=orthogonalEdgeStyle;rounded=0;orthogonalLoop=1;jettySize=auto;html=1;exitX=1;exitY=0.5;exitDx=0;exitDy=0;" edge="1" parent="1" source="LrOv5_oU3gxugozuznGC-5" target="7rDf7-Akc83dyVxrhOKC-1">
          <mxGeometry relative="1" as="geometry" />
        </mxCell>
        <mxCell id="LrOv5_oU3gxugozuznGC-5" value="点菜" style="rounded=0;whiteSpace=wrap;html=1;" parent="1" vertex="1">
          <mxGeometry x="440" y="200" width="110" height="30" as="geometry" />
        </mxCell>
        <mxCell id="7rDf7-Akc83dyVxrhOKC-6" style="edgeStyle=orthogonalEdgeStyle;rounded=0;orthogonalLoop=1;jettySize=auto;html=1;exitX=1;exitY=0.5;exitDx=0;exitDy=0;" edge="1" parent="1" source="7rDf7-Akc83dyVxrhOKC-1" target="7rDf7-Akc83dyVxrhOKC-2">
          <mxGeometry relative="1" as="geometry" />
        </mxCell>
        <mxCell id="7rDf7-Akc83dyVxrhOKC-1" value="加入购物车" style="rounded=0;whiteSpace=wrap;html=1;" vertex="1" parent="1">
          <mxGeometry x="610" y="200" width="110" height="30" as="geometry" />
        </mxCell>
        <mxCell id="7rDf7-Akc83dyVxrhOKC-7" style="edgeStyle=orthogonalEdgeStyle;rounded=0;orthogonalLoop=1;jettySize=auto;html=1;exitX=1;exitY=0.5;exitDx=0;exitDy=0;" edge="1" parent="1" source="7rDf7-Akc83dyVxrhOKC-2" target="7rDf7-Akc83dyVxrhOKC-3">
          <mxGeometry relative="1" as="geometry" />
        </mxCell>
        <mxCell id="7rDf7-Akc83dyVxrhOKC-2" value="支付" style="rounded=0;whiteSpace=wrap;html=1;" vertex="1" parent="1">
          <mxGeometry x="780" y="200" width="110" height="30" as="geometry" />
        </mxCell>
        <mxCell id="7rDf7-Akc83dyVxrhOKC-3" value="填写地址等信息" style="rounded=0;whiteSpace=wrap;html=1;" vertex="1" parent="1">
          <mxGeometry x="950" y="200" width="110" height="30" as="geometry" />
        </mxCell>
        <mxCell id="7rDf7-Akc83dyVxrhOKC-4" value="查询个人信息" style="rounded=0;whiteSpace=wrap;html=1;" vertex="1" parent="1">
          <mxGeometry x="440" y="255" width="110" height="30" as="geometry" />
        </mxCell>
        <mxCell id="7rDf7-Akc83dyVxrhOKC-8" style="edgeStyle=orthogonalEdgeStyle;rounded=0;orthogonalLoop=1;jettySize=auto;html=1;exitX=0.5;exitY=1;exitDx=0;exitDy=0;exitPerimeter=0;entryX=0.5;entryY=0;entryDx=0;entryDy=0;entryPerimeter=0;" edge="1" parent="1" source="LrOv5_oU3gxugozuznGC-1" target="LrOv5_oU3gxugozuznGC-3">
          <mxGeometry relative="1" as="geometry" />
        </mxCell>
        <mxCell id="7rDf7-Akc83dyVxrhOKC-9" style="edgeStyle=orthogonalEdgeStyle;rounded=0;orthogonalLoop=1;jettySize=auto;html=1;exitX=0.5;exitY=1;exitDx=0;exitDy=0;exitPerimeter=0;entryX=0.5;entryY=0;entryDx=0;entryDy=0;entryPerimeter=0;" edge="1" parent="1" source="LrOv5_oU3gxugozuznGC-3" target="LrOv5_oU3gxugozuznGC-4">
          <mxGeometry relative="1" as="geometry" />
        </mxCell>
        <mxCell id="7rDf7-Akc83dyVxrhOKC-12" value="是否支付" style="rhombus;whiteSpace=wrap;html=1;" vertex="1" parent="1">
          <mxGeometry x="659" y="255" width="80" height="80" as="geometry" />
        </mxCell>
      </root>
    </mxGraphModel>
  </diagram>
</mxfile>
